<svg width="97" height="41" viewBox="0 0 97 41" fill="none" xmlns="http://www.w3.org/2000/svg">
<g clip-path="url(#clip0_3189_464)">
<path d="M0.00171197 0C10.7337 0 21.4656 0 32.5228 0C32.5344 3.86237 32.546 7.72474 32.558 11.7042C32.5631 12.9204 32.5682 14.1366 32.5735 15.3897C32.576 16.8833 32.576 16.8833 32.5765 17.5842C32.577 18.0701 32.5791 18.556 32.5822 19.042C32.5861 19.6644 32.5872 20.2868 32.5864 20.9093C32.5866 21.1361 32.5877 21.3629 32.5899 21.5897C32.6371 26.6976 29.8145 30.9872 26.3952 34.5419C26.1871 34.7582 25.9814 34.9766 25.7756 35.195C24.7723 36.2464 23.6901 37.1543 22.5271 38.0208C22.3794 38.1318 22.2317 38.2428 22.0795 38.3571C20.1823 39.7325 17.8938 41.2834 15.4544 40.9468C13.266 40.4477 11.1521 38.9955 9.43422 37.5952C9.22543 37.4281 9.22543 37.4281 9.01242 37.2577C6.95999 35.5833 5.05239 33.6665 3.52131 31.4948C3.46117 31.4099 3.40103 31.3249 3.33907 31.2374C1.65145 28.828 -0.017454 26.0155 -0.0152179 22.9803C-0.0153384 22.882 -0.0154589 22.7837 -0.0155831 22.6825C-0.0158156 22.3531 -0.0150394 22.0237 -0.0142706 21.6943C-0.0142274 21.4542 -0.0142462 21.2141 -0.014322 20.9739C-0.0143538 20.3311 -0.0135381 19.6884 -0.0125466 19.0456C-0.0117446 18.4423 -0.0117071 17.839 -0.0116068 17.2357C-0.0108682 15.4717 -0.00890271 13.7076 -0.00708702 11.9436C-0.00418335 8.00218 -0.00127969 4.06081 0.00171197 0Z" fill="#163A90"/>
<path d="M2.39402 10.498C11.5464 10.498 20.6987 10.498 30.1284 10.498C30.1284 27.1837 30.1284 27.1837 23.8811 33.5783C22.9789 34.4842 21.9984 35.2697 20.9775 36.0344C20.861 36.1244 20.7445 36.2143 20.6244 36.307C19.2274 37.3474 17.426 38.5896 15.6277 38.4461C15.2319 38.3051 14.8703 38.1149 14.5014 37.9141C14.3593 37.8401 14.3593 37.8401 14.2144 37.7645C13.5969 37.4402 12.9924 37.0948 12.3897 36.7437C13.1904 35.7713 14.0453 34.8648 14.9997 34.0438C15.813 33.3314 16.5605 32.5506 17.3171 31.7783C18.137 30.9413 18.9517 30.1101 19.8402 29.3461C20.5066 28.7464 21.1245 28.0921 21.7518 27.4513C22.64 26.5441 23.5263 25.646 24.4971 24.8268C24.2972 24.3685 24.0555 24.0632 23.7041 23.7112C23.5511 23.5575 23.5511 23.5575 23.395 23.4006C23.2883 23.2948 23.1816 23.189 23.0716 23.08C22.9682 22.9759 22.8647 22.8717 22.7582 22.7644C22.2774 22.2837 21.7923 21.8153 21.2777 21.3715C20.4557 20.6572 19.7066 19.8655 18.945 19.0872C18.2301 18.3574 17.5116 17.643 16.7378 16.9761C16.2599 16.5515 15.8183 16.0902 15.3725 15.6319C15.1901 15.4445 15.0073 15.2573 14.8242 15.0705C14.7451 14.9892 14.666 14.9078 14.5846 14.824C14.3415 14.5825 14.3415 14.5825 13.9383 14.3285C13.9383 14.2349 13.9383 14.1412 13.9383 14.0448C11.8012 14.0916 9.66409 14.1384 7.46223 14.1866C7.85713 14.5875 8.25203 14.9884 8.65889 15.4014C8.78094 15.5257 8.90298 15.6499 9.02872 15.778C9.52019 16.275 10.0124 16.7626 10.5419 17.2185C11.3931 17.9556 12.1664 18.7773 12.9541 19.5819C13.6851 20.3276 14.4174 21.06 15.2089 21.7415C15.7724 22.244 16.2953 22.7895 16.8243 23.3283C16.9401 23.4456 17.0559 23.5629 17.1752 23.6838C17.4575 23.9699 17.7394 24.2563 18.021 24.543C17.8072 24.9955 17.5861 25.2995 17.2291 25.6514C17.0957 25.7844 17.0957 25.7844 16.9596 25.9202C16.6779 26.1847 16.3917 26.4379 16.0995 26.6905C15.3915 27.3115 14.7375 27.9837 14.0791 28.6572C13.3497 29.4033 12.6195 30.1318 11.8304 30.8136C11.2651 31.3194 10.7391 31.8665 10.2075 32.4079C10.0917 32.5252 9.97595 32.6425 9.85665 32.7634C9.57439 33.0495 9.29247 33.3359 9.01085 33.6226C6.11088 32.2508 3.85518 27.8429 2.79822 24.9609C1.36199 20.3603 2.39402 15.3209 2.39402 10.498Z" fill="#B12618"/>
<path d="M7.32031 14.0447C8.24973 14.0267 9.17911 14.0143 10.1087 14.0058C10.4248 14.0022 10.7409 13.9974 11.057 13.9912C11.5117 13.9826 11.9662 13.9786 12.421 13.9755C12.5621 13.9718 12.7032 13.9682 12.8486 13.9644C13.8341 13.964 13.8341 13.964 14.3455 14.3647C14.443 14.4932 14.5406 14.6217 14.6411 14.7541C14.7426 14.8571 14.8441 14.9601 14.9487 15.0663C15.1005 15.2206 15.1005 15.2206 15.2553 15.3781C15.4876 15.6134 15.7199 15.8488 15.9521 16.0841C16.0671 16.2011 16.182 16.3182 16.3005 16.4388C16.8098 16.9541 17.319 17.461 17.8675 17.9339C18.6882 18.6442 19.4341 19.4342 20.1931 20.2099C20.9089 20.9406 21.6282 21.6564 22.4029 22.3242C22.8635 22.7319 23.2913 23.1723 23.7216 23.612C23.8105 23.7023 23.8995 23.7925 23.9911 23.8855C24.2066 24.1043 24.4217 24.3236 24.6367 24.543C24.4534 24.9553 24.2662 25.2297 23.9339 25.5317C23.8045 25.6511 23.8045 25.6511 23.6724 25.773C23.5783 25.8587 23.4842 25.9444 23.3873 26.0326C22.3189 27.0216 21.291 28.0462 20.273 29.0875C19.777 29.5925 19.2822 30.0888 18.7458 30.5503C17.9438 31.244 17.2132 32.014 16.4713 32.7714C14.7823 34.4954 14.7823 34.4954 13.8915 35.2614C13.5625 35.548 13.2567 35.8552 12.9517 36.1674C12.8442 36.2769 12.7368 36.3865 12.6261 36.4993C12.5085 36.6203 12.5085 36.6203 12.3885 36.7437C11.6421 36.3431 11.0246 35.8875 10.3912 35.325C10.2639 35.2142 10.2639 35.2142 10.1341 35.1011C9.6962 34.7175 9.27294 34.3266 8.86893 33.9063C9.09163 33.3618 9.43529 33.0173 9.84672 32.6046C9.91552 32.5353 9.98432 32.466 10.0552 32.3947C10.2009 32.2483 10.347 32.1022 10.4933 31.9565C10.7138 31.7369 10.9331 31.5162 11.1523 31.2953C11.8272 30.6177 12.5108 29.959 13.2348 29.3343C13.8237 28.8054 14.3693 28.2302 14.9226 27.6641C15.6669 26.9028 16.41 26.1536 17.2186 25.4613C17.4494 25.2588 17.6654 25.0473 17.8791 24.8268C17.663 24.3101 17.3554 23.9806 16.9629 23.5871C16.7718 23.3949 16.7718 23.3949 16.5768 23.1989C16.5102 23.1326 16.4436 23.0664 16.375 22.9982C16.175 22.7991 15.9761 22.5989 15.7772 22.3986C15.2257 21.8464 14.6746 21.3 14.0834 20.7907C13.2361 20.0578 12.467 19.2389 11.6833 18.4384C10.9451 17.6853 10.2058 16.9443 9.4065 16.256C8.97359 15.8753 8.56972 15.4662 8.16501 15.0556C8.0828 14.9733 8.00059 14.891 7.91589 14.8062C7.32031 14.2046 7.32031 14.2046 7.32031 14.0447Z" fill="#FDFCFC"/>
<path d="M60.6797 12.2007C63.8389 12.2007 66.9981 12.2007 70.253 12.2007C70.253 13.2775 70.253 14.3542 70.253 15.4637C68.3017 15.4637 66.3505 15.4637 64.3401 15.4637C64.3401 16.1191 64.3401 16.7745 64.3401 17.4498C66.2449 17.4498 68.1497 17.4498 70.1122 17.4498C70.1122 18.6202 70.1122 19.7906 70.1122 20.9965C68.2074 20.9965 66.3026 20.9965 64.3401 20.9965C64.3401 21.7456 64.3401 22.4947 64.3401 23.2664C66.2913 23.2664 68.2426 23.2664 70.253 23.2664C70.253 24.4368 70.253 25.6073 70.253 26.8131C67.0938 26.8131 63.9346 26.8131 60.6797 26.8131C60.6797 21.991 60.6797 17.1689 60.6797 12.2007Z" fill="white"/>
<path d="M86.02 12.2007C87.228 12.2007 88.4359 12.2007 89.6804 12.2007C89.6832 12.5157 89.686 12.8308 89.6889 13.1554C89.6983 14.1962 89.7092 15.2369 89.7209 16.2777C89.7279 16.9087 89.7345 17.5398 89.7398 18.1708C89.745 18.7798 89.7515 19.3887 89.759 19.9976C89.7616 20.23 89.7637 20.4624 89.7654 20.6947C89.7677 21.0201 89.7718 21.3454 89.7763 21.6708C89.7782 21.8561 89.7801 22.0413 89.782 22.2322C89.8187 22.6694 89.8527 22.9125 90.1028 23.2664C90.7799 23.641 91.2902 23.7782 92.0737 23.692C92.664 23.4632 93.0235 23.2518 93.3408 22.699C93.4074 22.2176 93.4074 22.2176 93.4017 21.6708C93.4031 21.5683 93.4045 21.4659 93.406 21.3603C93.4103 21.0225 93.4116 20.6848 93.4128 20.347C93.4152 20.1125 93.4178 19.8779 93.4205 19.6434C93.4272 19.0267 93.4314 18.4101 93.4351 17.7934C93.4393 17.1638 93.4458 16.5343 93.4522 15.9048C93.4643 14.6701 93.4735 13.4354 93.4816 12.2007C94.643 12.2007 95.8045 12.2007 97.0012 12.2007C97.0171 13.656 97.03 15.1112 97.0376 16.5665C97.0413 17.2424 97.0463 17.9183 97.0543 18.5941C97.062 19.2472 97.0661 19.9003 97.068 20.5534C97.0693 20.8017 97.0718 21.05 97.0756 21.2983C97.096 22.6782 97.1028 23.7876 96.2973 24.9689C96.2189 25.0976 96.1405 25.2263 96.0597 25.359C94.829 26.5656 93.2828 27.017 91.609 27.1063C89.8869 27.0751 88.3895 26.563 87.1221 25.3939C86.2114 24.3919 85.9973 23.3652 86.0041 22.0413C86.004 21.9346 86.004 21.828 86.004 21.7181C86.0041 21.3673 86.0052 21.0165 86.0063 20.6657C86.0066 20.4218 86.0068 20.1779 86.0069 19.934C86.0074 19.2933 86.0088 18.6526 86.0104 18.012C86.0118 17.3577 86.0125 16.7034 86.0132 16.0491C86.0147 14.7663 86.0172 13.4835 86.02 12.2007Z" fill="white"/>
<path d="M2.39453 2.27002C11.5469 2.27002 20.6992 2.27002 30.1289 2.27002C30.1289 3.53407 30.1289 4.79812 30.1289 6.10047C20.9766 6.10047 11.8242 6.10047 2.39453 6.10047C2.39453 4.83642 2.39453 3.57237 2.39453 2.27002Z" fill="#F9F9FC"/>
<path d="M40.4062 12.2007C43.6443 12.2007 43.6443 12.2007 44.357 12.8125C44.4915 13.0346 44.6253 13.2573 44.7495 13.4854C45.0914 14.0683 45.5193 14.5955 45.9232 15.1356C46.0869 15.3605 46.2503 15.5856 46.4132 15.8111C46.846 16.4085 47.285 17.0011 47.727 17.5917C48.289 17.0589 48.7256 16.494 49.1612 15.8538C49.8015 14.9149 49.8015 14.9149 50.1203 14.7543C50.1589 15.6323 50.1869 16.5097 50.2054 17.3884C50.2131 17.6865 50.2237 17.9845 50.2372 18.2824C50.3582 21.026 50.3582 21.026 49.5938 21.9309C49.2713 22.2562 48.922 22.5465 48.5717 22.8408C48.3248 23.1165 48.0972 23.4011 47.8678 23.692C47.122 23.1004 46.5424 22.4525 45.954 21.7025C45.5275 21.1709 45.0765 20.6598 44.6298 20.1453C44.5833 22.3925 44.5368 24.6397 44.489 26.955C43.1417 26.955 41.7944 26.955 40.4062 26.955C40.4062 22.0861 40.4062 17.2172 40.4062 12.2007Z" fill="#B12516"/>
<path d="M51.3867 12.2007C53.8955 12.2007 56.4043 12.2007 58.989 12.2007C58.989 13.2775 58.989 14.3542 58.989 15.4637C58.3851 15.4637 57.7811 15.4637 57.1589 15.4637C57.1589 18.0386 57.1589 20.6135 57.1589 23.2664C57.7628 23.2664 58.3668 23.2664 58.989 23.2664C58.989 24.4368 58.989 25.6073 58.989 26.8131C56.4803 26.8131 53.9715 26.8131 51.3867 26.8131C51.3867 25.6427 51.3867 24.4723 51.3867 23.2664C51.9907 23.2664 52.5946 23.2664 53.2169 23.2664C53.2169 20.6915 53.2169 18.1166 53.2169 15.4637C52.6129 15.4637 52.009 15.4637 51.3867 15.4637C51.3867 14.3869 51.3867 13.3101 51.3867 12.2007Z" fill="white"/>
<path d="M72.2227 12.2007C76.0323 12.2007 79.8419 12.2007 83.7669 12.2007C83.7669 13.2775 83.7669 14.3542 83.7669 15.4637C83.6972 15.5339 83.6972 15.5339 83.6261 15.6055C82.3253 15.6055 81.0245 15.6055 79.6842 15.6055C79.6842 19.304 79.6842 23.0026 79.6842 26.8131C78.5227 26.8131 77.3613 26.8131 76.1646 26.8131C76.1646 23.1146 76.1646 19.4161 76.1646 15.6055C74.8638 15.6055 73.5629 15.6055 72.2227 15.6055C72.2227 14.4819 72.2227 13.3583 72.2227 12.2007Z" fill="white"/>
<path d="M24.3538 14.3286C24.5861 14.3286 24.8184 14.3286 25.0577 14.3286C25.1042 14.5627 25.1506 14.7968 25.1985 15.038C25.6863 14.9677 25.6863 14.9677 26.184 14.8961C26.4039 15.1266 26.4039 15.1266 26.6063 15.4636C26.5623 15.9246 26.5623 15.9246 26.4655 16.3148C26.6514 16.3148 26.8372 16.3148 27.0287 16.3148C27.0287 16.5957 27.0287 16.8766 27.0287 17.166C26.8428 17.166 26.657 17.166 26.4655 17.166C26.4655 17.2713 26.4655 17.3767 26.4655 17.4852C26.4655 17.8044 26.4655 18.1236 26.4655 18.4428C25.9899 18.5626 25.6666 18.6001 25.1985 18.4428C25.152 18.6769 25.1056 18.911 25.0577 19.1521C24.779 19.1521 24.5002 19.1521 24.213 19.1521C24.1665 18.9649 24.1201 18.7776 24.0722 18.5847C23.8762 18.6329 23.8762 18.6329 23.6763 18.6822C23.2275 18.7265 23.2275 18.7265 22.9547 18.5935C22.7082 18.1112 22.852 17.6909 22.9459 17.166C22.7601 17.166 22.5743 17.166 22.3828 17.166C22.3828 16.8851 22.3828 16.6042 22.3828 16.3148C22.5686 16.3148 22.7545 16.3148 22.9459 16.3148C22.9169 16.1334 22.8879 15.9519 22.858 15.765C22.8085 15.4558 22.8085 15.4558 22.8052 15.1798C23.0867 14.8961 23.0867 14.8961 23.5971 14.8784C23.8323 14.8871 23.8323 14.8871 24.0722 14.8961C24.1651 14.7088 24.2581 14.5216 24.3538 14.3286Z" fill="#FCF6F6"/>
<path d="M25.1988 16.0313C25.4803 16.3151 25.4803 16.3151 25.5243 16.7318C25.4803 17.1663 25.4803 17.1663 25.3219 17.4412C24.9198 17.6708 24.6464 17.5708 24.2133 17.45C23.9317 17.1663 23.9317 17.1663 23.8789 16.7496C23.9317 16.3151 23.9317 16.3151 24.1693 16.0402C24.5813 15.8494 24.7744 15.8851 25.1988 16.0313Z" fill="#B63224"/>
</g>
<defs>
<clipPath id="clip0_3189_464">
<rect width="97" height="41" fill="white"/>
</clipPath>
</defs>
</svg>
